<svg width="489" height="64" viewBox="0 0 489 64" fill="none" xmlns="http://www.w3.org/2000/svg">
<path d="M12 38.59C12 38.8552 11.8946 39.1096 11.7071 39.2971C11.5196 39.4846 11.2652 39.59 11 39.59C10.7348 39.59 10.4804 39.4846 10.2929 39.2971C10.1054 39.1096 10 38.8552 10 38.59V32.5C10 26.977 14.477 22.5 20 22.5C25.523 22.5 30 26.977 30 32.5V35.586C30 35.8512 29.8946 36.1056 29.7071 36.2931C29.5196 36.4806 29.2652 36.586 29 36.586C28.7348 36.586 28.4804 36.4806 28.2929 36.2931C28.1054 36.1056 28 35.8512 28 35.586V32.5C28 30.3783 27.1571 28.3434 25.6569 26.8432C24.1566 25.3429 22.1217 24.5 20 24.5C17.8783 24.5 15.8434 25.3429 14.3432 26.8432C12.8429 28.3434 12 30.3783 12 32.5V38.59ZM12 32.5H14C14.5304 32.5 15.0391 32.7107 15.4142 33.0858C15.7893 33.4609 16 33.9696 16 34.5V39.5C16 40.0304 15.7893 40.5391 15.4142 40.9142C15.0391 41.2893 14.5304 41.5 14 41.5H12C11.4696 41.5 10.9609 41.2893 10.5858 40.9142C10.2107 40.5391 10 40.0304 10 39.5V34.5C10 33.9696 10.2107 33.4609 10.5858 33.0858C10.9609 32.7107 11.4696 32.5 12 32.5ZM12 34.5V39.5H14V34.5H12ZM26 32.5H28C28.5304 32.5 29.0391 32.7107 29.4142 33.0858C29.7893 33.4609 30 33.9696 30 34.5V39.5C30 40.0304 29.7893 40.5391 29.4142 40.9142C29.0391 41.2893 28.5304 41.5 28 41.5H26C25.4696 41.5 24.9609 41.2893 24.5858 40.9142C24.2107 40.5391 24 40.0304 24 39.5V34.5C24 33.9696 24.2107 33.4609 24.5858 33.0858C24.9609 32.7107 25.4696 32.5 26 32.5ZM26 34.5V39.5H28V34.5H26Z" fill="#0369A1"/>
<path d="M50.8359 31.7109L49.3359 31.3438L49.9531 25.625H56.0859V27.2188H51.5156L51.2031 30.0078C51.3802 29.9036 51.625 29.8021 51.9375 29.7031C52.25 29.599 52.6068 29.5469 53.0078 29.5469C53.5443 29.5469 54.0234 29.6354 54.4453 29.8125C54.8724 29.9844 55.2344 30.237 55.5312 30.5703C55.8281 30.8984 56.0547 31.2995 56.2109 31.7734C56.3672 32.2422 56.4453 32.7708 56.4453 33.3594C56.4453 33.8854 56.3672 34.3776 56.2109 34.8359C56.0599 35.2943 55.8307 35.6979 55.5234 36.0469C55.2161 36.3958 54.8281 36.6693 54.3594 36.8672C53.8958 37.0599 53.3464 37.1562 52.7109 37.1562C52.237 37.1562 51.7812 37.0885 51.3438 36.9531C50.9115 36.8125 50.5234 36.6068 50.1797 36.3359C49.8359 36.0599 49.5599 35.7214 49.3516 35.3203C49.1432 34.9141 49.0234 34.4479 48.9922 33.9219H50.8359C50.8828 34.2917 50.9844 34.6068 51.1406 34.8672C51.3021 35.1224 51.5156 35.3177 51.7812 35.4531C52.0469 35.5885 52.3542 35.6562 52.7031 35.6562C53.0208 35.6562 53.2943 35.6016 53.5234 35.4922C53.7526 35.3776 53.9427 35.2161 54.0938 35.0078C54.25 34.7943 54.3646 34.5443 54.4375 34.2578C54.5156 33.9714 54.5547 33.6536 54.5547 33.3047C54.5547 32.9714 54.5104 32.6667 54.4219 32.3906C54.3385 32.1146 54.2109 31.875 54.0391 31.6719C53.8724 31.4688 53.6615 31.3125 53.4062 31.2031C53.151 31.0885 52.8568 31.0312 52.5234 31.0312C52.0755 31.0312 51.7318 31.0964 51.4922 31.2266C51.2578 31.3568 51.0391 31.5182 50.8359 31.7109ZM60.4297 31.7109L58.9297 31.3438L59.5469 25.625H65.6797V27.2188H61.1094L60.7969 30.0078C60.974 29.9036 61.2188 29.8021 61.5312 29.7031C61.8438 29.599 62.2005 29.5469 62.6016 29.5469C63.138 29.5469 63.6172 29.6354 64.0391 29.8125C64.4661 29.9844 64.8281 30.237 65.125 30.5703C65.4219 30.8984 65.6484 31.2995 65.8047 31.7734C65.9609 32.2422 66.0391 32.7708 66.0391 33.3594C66.0391 33.8854 65.9609 34.3776 65.8047 34.8359C65.6536 35.2943 65.4245 35.6979 65.1172 36.0469C64.8099 36.3958 64.4219 36.6693 63.9531 36.8672C63.4896 37.0599 62.9401 37.1562 62.3047 37.1562C61.8307 37.1562 61.375 37.0885 60.9375 36.9531C60.5052 36.8125 60.1172 36.6068 59.7734 36.3359C59.4297 36.0599 59.1536 35.7214 58.9453 35.3203C58.737 34.9141 58.6172 34.4479 58.5859 33.9219H60.4297C60.4766 34.2917 60.5781 34.6068 60.7344 34.8672C60.8958 35.1224 61.1094 35.3177 61.375 35.4531C61.6406 35.5885 61.9479 35.6562 62.2969 35.6562C62.6146 35.6562 62.888 35.6016 63.1172 35.4922C63.3464 35.3776 63.5365 35.2161 63.6875 35.0078C63.8438 34.7943 63.9583 34.5443 64.0312 34.2578C64.1094 33.9714 64.1484 33.6536 64.1484 33.3047C64.1484 32.9714 64.1042 32.6667 64.0156 32.3906C63.9323 32.1146 63.8047 31.875 63.6328 31.6719C63.4661 31.4688 63.2552 31.3125 63 31.2031C62.7448 31.0885 62.4505 31.0312 62.1172 31.0312C61.6693 31.0312 61.3255 31.0964 61.0859 31.2266C60.8516 31.3568 60.6328 31.5182 60.4297 31.7109ZM70.0234 31.7109L68.5234 31.3438L69.1406 25.625H75.2734V27.2188H70.7031L70.3906 30.0078C70.5677 29.9036 70.8125 29.8021 71.125 29.7031C71.4375 29.599 71.7943 29.5469 72.1953 29.5469C72.7318 29.5469 73.2109 29.6354 73.6328 29.8125C74.0599 29.9844 74.4219 30.237 74.7188 30.5703C75.0156 30.8984 75.2422 31.2995 75.3984 31.7734C75.5547 32.2422 75.6328 32.7708 75.6328 33.3594C75.6328 33.8854 75.5547 34.3776 75.3984 34.8359C75.2474 35.2943 75.0182 35.6979 74.7109 36.0469C74.4036 36.3958 74.0156 36.6693 73.5469 36.8672C73.0833 37.0599 72.5339 37.1562 71.8984 37.1562C71.4245 37.1562 70.9688 37.0885 70.5312 36.9531C70.099 36.8125 69.7109 36.6068 69.3672 36.3359C69.0234 36.0599 68.7474 35.7214 68.5391 35.3203C68.3307 34.9141 68.2109 34.4479 68.1797 33.9219H70.0234C70.0703 34.2917 70.1719 34.6068 70.3281 34.8672C70.4896 35.1224 70.7031 35.3177 70.9688 35.4531C71.2344 35.5885 71.5417 35.6562 71.8906 35.6562C72.2083 35.6562 72.4818 35.6016 72.7109 35.4922C72.9401 35.3776 73.1302 35.2161 73.2812 35.0078C73.4375 34.7943 73.5521 34.5443 73.625 34.2578C73.7031 33.9714 73.7422 33.6536 73.7422 33.3047C73.7422 32.9714 73.6979 32.6667 73.6094 32.3906C73.526 32.1146 73.3984 31.875 73.2266 31.6719C73.0599 31.4688 72.849 31.3125 72.5938 31.2031C72.3385 31.0885 72.0443 31.0312 71.7109 31.0312C71.263 31.0312 70.9193 31.0964 70.6797 31.2266C70.4453 31.3568 70.2266 31.5182 70.0234 31.7109ZM89.5625 33.8984C89.5625 34.6068 89.3984 35.2031 89.0703 35.6875C88.7422 36.1719 88.2943 36.5391 87.7266 36.7891C87.1641 37.0339 86.5286 37.1562 85.8203 37.1562C85.112 37.1562 84.474 37.0339 83.9062 36.7891C83.3385 36.5391 82.8906 36.1719 82.5625 35.6875C82.2344 35.2031 82.0703 34.6068 82.0703 33.8984C82.0703 33.4297 82.1615 33.0052 82.3438 32.625C82.526 32.2396 82.7839 31.9089 83.1172 31.6328C83.4557 31.3516 83.8516 31.1354 84.3047 30.9844C84.763 30.8333 85.263 30.7578 85.8047 30.7578C86.5234 30.7578 87.1667 30.8906 87.7344 31.1562C88.3021 31.4219 88.7474 31.7891 89.0703 32.2578C89.3984 32.7266 89.5625 33.2734 89.5625 33.8984ZM87.6719 33.8047C87.6719 33.4245 87.5938 33.0911 87.4375 32.8047C87.2812 32.5182 87.0625 32.2969 86.7812 32.1406C86.5 31.9844 86.1745 31.9062 85.8047 31.9062C85.4297 31.9062 85.1042 31.9844 84.8281 32.1406C84.5521 32.2969 84.3359 32.5182 84.1797 32.8047C84.0286 33.0911 83.9531 33.4245 83.9531 33.8047C83.9531 34.1901 84.0286 34.5234 84.1797 34.8047C84.3307 35.0807 84.5469 35.2917 84.8281 35.4375C85.1094 35.5833 85.4401 35.6562 85.8203 35.6562C86.2005 35.6562 86.5286 35.5833 86.8047 35.4375C87.0807 35.2917 87.2943 35.0807 87.4453 34.8047C87.5964 34.5234 87.6719 34.1901 87.6719 33.8047ZM89.3047 28.6172C89.3047 29.1849 89.1536 29.6901 88.8516 30.1328C88.5547 30.5755 88.1432 30.9245 87.6172 31.1797C87.0911 31.4297 86.4922 31.5547 85.8203 31.5547C85.1432 31.5547 84.5391 31.4297 84.0078 31.1797C83.4818 30.9245 83.0677 30.5755 82.7656 30.1328C82.4688 29.6901 82.3203 29.1849 82.3203 28.6172C82.3203 27.9401 82.4688 27.3698 82.7656 26.9062C83.0677 26.4375 83.4818 26.0807 84.0078 25.8359C84.5339 25.5911 85.1354 25.4688 85.8125 25.4688C86.4896 25.4688 87.0911 25.5911 87.6172 25.8359C88.1432 26.0807 88.5547 26.4375 88.8516 26.9062C89.1536 27.3698 89.3047 27.9401 89.3047 28.6172ZM87.4219 28.6797C87.4219 28.3411 87.3542 28.0443 87.2188 27.7891C87.0885 27.5286 86.9036 27.3255 86.6641 27.1797C86.4245 27.0339 86.1406 26.9609 85.8125 26.9609C85.4844 26.9609 85.2005 27.0312 84.9609 27.1719C84.7214 27.3125 84.5365 27.5104 84.4062 27.7656C84.276 28.0208 84.2109 28.3255 84.2109 28.6797C84.2109 29.0286 84.276 29.3333 84.4062 29.5938C84.5365 29.849 84.7214 30.0495 84.9609 30.1953C85.2057 30.3411 85.4922 30.4141 85.8203 30.4141C86.1484 30.4141 86.4323 30.3411 86.6719 30.1953C86.9115 30.0495 87.0964 29.849 87.2266 29.5938C87.3568 29.3333 87.4219 29.0286 87.4219 28.6797ZM96.8594 25.5859V37H94.9766V27.8203L92.1875 28.7656V27.2109L96.6328 25.5859H96.8594ZM108.75 33.8984C108.75 34.6068 108.586 35.2031 108.258 35.6875C107.93 36.1719 107.482 36.5391 106.914 36.7891C106.352 37.0339 105.716 37.1562 105.008 37.1562C104.299 37.1562 103.661 37.0339 103.094 36.7891C102.526 36.5391 102.078 36.1719 101.75 35.6875C101.422 35.2031 101.258 34.6068 101.258 33.8984C101.258 33.4297 101.349 33.0052 101.531 32.625C101.714 32.2396 101.971 31.9089 102.305 31.6328C102.643 31.3516 103.039 31.1354 103.492 30.9844C103.951 30.8333 104.451 30.7578 104.992 30.7578C105.711 30.7578 106.354 30.8906 106.922 31.1562C107.49 31.4219 107.935 31.7891 108.258 32.2578C108.586 32.7266 108.75 33.2734 108.75 33.8984ZM106.859 33.8047C106.859 33.4245 106.781 33.0911 106.625 32.8047C106.469 32.5182 106.25 32.2969 105.969 32.1406C105.688 31.9844 105.362 31.9062 104.992 31.9062C104.617 31.9062 104.292 31.9844 104.016 32.1406C103.74 32.2969 103.523 32.5182 103.367 32.8047C103.216 33.0911 103.141 33.4245 103.141 33.8047C103.141 34.1901 103.216 34.5234 103.367 34.8047C103.518 35.0807 103.734 35.2917 104.016 35.4375C104.297 35.5833 104.628 35.6562 105.008 35.6562C105.388 35.6562 105.716 35.5833 105.992 35.4375C106.268 35.2917 106.482 35.0807 106.633 34.8047C106.784 34.5234 106.859 34.1901 106.859 33.8047ZM108.492 28.6172C108.492 29.1849 108.341 29.6901 108.039 30.1328C107.742 30.5755 107.331 30.9245 106.805 31.1797C106.279 31.4297 105.68 31.5547 105.008 31.5547C104.331 31.5547 103.727 31.4297 103.195 31.1797C102.669 30.9245 102.255 30.5755 101.953 30.1328C101.656 29.6901 101.508 29.1849 101.508 28.6172C101.508 27.9401 101.656 27.3698 101.953 26.9062C102.255 26.4375 102.669 26.0807 103.195 25.8359C103.721 25.5911 104.323 25.4688 105 25.4688C105.677 25.4688 106.279 25.5911 106.805 25.8359C107.331 26.0807 107.742 26.4375 108.039 26.9062C108.341 27.3698 108.492 27.9401 108.492 28.6172ZM106.609 28.6797C106.609 28.3411 106.542 28.0443 106.406 27.7891C106.276 27.5286 106.091 27.3255 105.852 27.1797C105.612 27.0339 105.328 26.9609 105 26.9609C104.672 26.9609 104.388 27.0312 104.148 27.1719C103.909 27.3125 103.724 27.5104 103.594 27.7656C103.464 28.0208 103.398 28.3255 103.398 28.6797C103.398 29.0286 103.464 29.3333 103.594 29.5938C103.724 29.849 103.909 30.0495 104.148 30.1953C104.393 30.3411 104.68 30.4141 105.008 30.4141C105.336 30.4141 105.62 30.3411 105.859 30.1953C106.099 30.0495 106.284 29.849 106.414 29.5938C106.544 29.3333 106.609 29.0286 106.609 28.6797ZM123.016 35.5V37H115.391V35.7109L119.094 31.6719C119.5 31.2135 119.82 30.8177 120.055 30.4844C120.289 30.151 120.453 29.8516 120.547 29.5859C120.646 29.3151 120.695 29.0521 120.695 28.7969C120.695 28.4375 120.628 28.1224 120.492 27.8516C120.362 27.5755 120.169 27.3594 119.914 27.2031C119.659 27.0417 119.349 26.9609 118.984 26.9609C118.562 26.9609 118.208 27.0521 117.922 27.2344C117.635 27.4167 117.419 27.6693 117.273 27.9922C117.128 28.3099 117.055 28.6745 117.055 29.0859H115.172C115.172 28.4245 115.323 27.8203 115.625 27.2734C115.927 26.7214 116.365 26.2839 116.938 25.9609C117.51 25.6328 118.201 25.4688 119.008 25.4688C119.768 25.4688 120.414 25.5964 120.945 25.8516C121.477 26.1068 121.88 26.4688 122.156 26.9375C122.438 27.4062 122.578 27.9609 122.578 28.6016C122.578 28.9557 122.521 29.3073 122.406 29.6562C122.292 30.0052 122.128 30.3542 121.914 30.7031C121.706 31.0469 121.458 31.3932 121.172 31.7422C120.885 32.0859 120.57 32.4349 120.227 32.7891L117.766 35.5H123.016ZM132.422 33.8984C132.422 34.6068 132.258 35.2031 131.93 35.6875C131.602 36.1719 131.154 36.5391 130.586 36.7891C130.023 37.0339 129.388 37.1562 128.68 37.1562C127.971 37.1562 127.333 37.0339 126.766 36.7891C126.198 36.5391 125.75 36.1719 125.422 35.6875C125.094 35.2031 124.93 34.6068 124.93 33.8984C124.93 33.4297 125.021 33.0052 125.203 32.625C125.385 32.2396 125.643 31.9089 125.977 31.6328C126.315 31.3516 126.711 31.1354 127.164 30.9844C127.622 30.8333 128.122 30.7578 128.664 30.7578C129.383 30.7578 130.026 30.8906 130.594 31.1562C131.161 31.4219 131.607 31.7891 131.93 32.2578C132.258 32.7266 132.422 33.2734 132.422 33.8984ZM130.531 33.8047C130.531 33.4245 130.453 33.0911 130.297 32.8047C130.141 32.5182 129.922 32.2969 129.641 32.1406C129.359 31.9844 129.034 31.9062 128.664 31.9062C128.289 31.9062 127.964 31.9844 127.688 32.1406C127.411 32.2969 127.195 32.5182 127.039 32.8047C126.888 33.0911 126.812 33.4245 126.812 33.8047C126.812 34.1901 126.888 34.5234 127.039 34.8047C127.19 35.0807 127.406 35.2917 127.688 35.4375C127.969 35.5833 128.299 35.6562 128.68 35.6562C129.06 35.6562 129.388 35.5833 129.664 35.4375C129.94 35.2917 130.154 35.0807 130.305 34.8047C130.456 34.5234 130.531 34.1901 130.531 33.8047ZM132.164 28.6172C132.164 29.1849 132.013 29.6901 131.711 30.1328C131.414 30.5755 131.003 30.9245 130.477 31.1797C129.951 31.4297 129.352 31.5547 128.68 31.5547C128.003 31.5547 127.398 31.4297 126.867 31.1797C126.341 30.9245 125.927 30.5755 125.625 30.1328C125.328 29.6901 125.18 29.1849 125.18 28.6172C125.18 27.9401 125.328 27.3698 125.625 26.9062C125.927 26.4375 126.341 26.0807 126.867 25.8359C127.393 25.5911 127.995 25.4688 128.672 25.4688C129.349 25.4688 129.951 25.5911 130.477 25.8359C131.003 26.0807 131.414 26.4375 131.711 26.9062C132.013 27.3698 132.164 27.9401 132.164 28.6172ZM130.281 28.6797C130.281 28.3411 130.214 28.0443 130.078 27.7891C129.948 27.5286 129.763 27.3255 129.523 27.1797C129.284 27.0339 129 26.9609 128.672 26.9609C128.344 26.9609 128.06 27.0312 127.82 27.1719C127.581 27.3125 127.396 27.5104 127.266 27.7656C127.135 28.0208 127.07 28.3255 127.07 28.6797C127.07 29.0286 127.135 29.3333 127.266 29.5938C127.396 29.849 127.581 30.0495 127.82 30.1953C128.065 30.3411 128.352 30.4141 128.68 30.4141C129.008 30.4141 129.292 30.3411 129.531 30.1953C129.771 30.0495 129.956 29.849 130.086 29.5938C130.216 29.3333 130.281 29.0286 130.281 28.6797ZM142.203 35.5V37H134.578V35.7109L138.281 31.6719C138.688 31.2135 139.008 30.8177 139.242 30.4844C139.477 30.151 139.641 29.8516 139.734 29.5859C139.833 29.3151 139.883 29.0521 139.883 28.7969C139.883 28.4375 139.815 28.1224 139.68 27.8516C139.549 27.5755 139.357 27.3594 139.102 27.2031C138.846 27.0417 138.536 26.9609 138.172 26.9609C137.75 26.9609 137.396 27.0521 137.109 27.2344C136.823 27.4167 136.607 27.6693 136.461 27.9922C136.315 28.3099 136.242 28.6745 136.242 29.0859H134.359C134.359 28.4245 134.51 27.8203 134.812 27.2734C135.115 26.7214 135.552 26.2839 136.125 25.9609C136.698 25.6328 137.388 25.4688 138.195 25.4688C138.956 25.4688 139.602 25.5964 140.133 25.8516C140.664 26.1068 141.068 26.4688 141.344 26.9375C141.625 27.4062 141.766 27.9609 141.766 28.6016C141.766 28.9557 141.708 29.3073 141.594 29.6562C141.479 30.0052 141.315 30.3542 141.102 30.7031C140.893 31.0469 140.646 31.3932 140.359 31.7422C140.073 32.0859 139.758 32.4349 139.414 32.7891L136.953 35.5H142.203Z" fill="#0369A1"/>
<rect x="184" y="1" width="304" height="62" rx="31" stroke="#581C87" stroke-width="2"/>
<path d="M232.523 22.9375H238.887C240.191 22.9375 241.312 23.1328 242.25 23.5234C243.195 23.9141 243.922 24.4922 244.43 25.2578C244.938 26.0234 245.191 26.9648 245.191 28.082C245.191 28.9961 245.035 29.7812 244.723 30.4375C244.418 31.0859 243.984 31.6289 243.422 32.0664C242.867 32.4961 242.215 32.8398 241.465 33.0977L240.352 33.6836H234.82L234.797 30.9414H238.91C239.527 30.9414 240.039 30.832 240.445 30.6133C240.852 30.3945 241.156 30.0898 241.359 29.6992C241.57 29.3086 241.676 28.8555 241.676 28.3398C241.676 27.793 241.574 27.3203 241.371 26.9219C241.168 26.5234 240.859 26.2188 240.445 26.0078C240.031 25.7969 239.512 25.6914 238.887 25.6914H236.039V40H232.523V22.9375ZM242.062 40L238.172 32.3945L241.887 32.3711L245.824 39.8359V40H242.062ZM254.023 40.2344C253.039 40.2344 252.156 40.0781 251.375 39.7656C250.594 39.4453 249.93 39.0039 249.383 38.4414C248.844 37.8789 248.43 37.2266 248.141 36.4844C247.852 35.7344 247.707 34.9375 247.707 34.0938V33.625C247.707 32.6641 247.844 31.7852 248.117 30.9883C248.391 30.1914 248.781 29.5 249.289 28.9141C249.805 28.3281 250.43 27.8789 251.164 27.5664C251.898 27.2461 252.727 27.0859 253.648 27.0859C254.547 27.0859 255.344 27.2344 256.039 27.5312C256.734 27.8281 257.316 28.25 257.785 28.7969C258.262 29.3438 258.621 30 258.863 30.7656C259.105 31.5234 259.227 32.3672 259.227 33.2969V34.7031H249.148V32.4531H255.91V32.1953C255.91 31.7266 255.824 31.3086 255.652 30.9414C255.488 30.5664 255.238 30.2695 254.902 30.0508C254.566 29.832 254.137 29.7227 253.613 29.7227C253.168 29.7227 252.785 29.8203 252.465 30.0156C252.145 30.2109 251.883 30.4844 251.68 30.8359C251.484 31.1875 251.336 31.6016 251.234 32.0781C251.141 32.5469 251.094 33.0625 251.094 33.625V34.0938C251.094 34.6016 251.164 35.0703 251.305 35.5C251.453 35.9297 251.66 36.3008 251.926 36.6133C252.199 36.9258 252.527 37.168 252.91 37.3398C253.301 37.5117 253.742 37.5977 254.234 37.5977C254.844 37.5977 255.41 37.4805 255.934 37.2461C256.465 37.0039 256.922 36.6406 257.305 36.1562L258.945 37.9375C258.68 38.3203 258.316 38.6875 257.855 39.0391C257.402 39.3906 256.855 39.6797 256.215 39.9062C255.574 40.125 254.844 40.2344 254.023 40.2344ZM269.137 44.875V29.9102L269.57 27.3203H272.535V44.875H269.137ZM261.121 33.7891V33.543C261.121 32.5742 261.227 31.6953 261.438 30.9062C261.656 30.1094 261.977 29.4297 262.398 28.8672C262.82 28.2969 263.336 27.8594 263.945 27.5547C264.562 27.2422 265.273 27.0859 266.078 27.0859C266.852 27.0859 267.52 27.2422 268.082 27.5547C268.645 27.8672 269.117 28.3086 269.5 28.8789C269.891 29.4492 270.203 30.1211 270.438 30.8945C270.672 31.668 270.852 32.5156 270.977 33.4375V33.9766C270.859 34.8594 270.68 35.6797 270.438 36.4375C270.203 37.1953 269.891 37.8594 269.5 38.4297C269.117 39 268.641 39.4453 268.07 39.7656C267.508 40.0781 266.836 40.2344 266.055 40.2344C265.266 40.2344 264.562 40.0742 263.945 39.7539C263.336 39.4258 262.82 38.9727 262.398 38.3945C261.977 37.8164 261.656 37.1367 261.438 36.3555C261.227 35.5664 261.121 34.7109 261.121 33.7891ZM264.496 33.543V33.7891C264.496 34.3125 264.539 34.8047 264.625 35.2656C264.711 35.7188 264.848 36.1211 265.035 36.4727C265.23 36.8242 265.48 37.1016 265.785 37.3047C266.09 37.5 266.465 37.5977 266.91 37.5977C267.527 37.5977 268.023 37.4648 268.398 37.1992C268.781 36.9258 269.062 36.5547 269.242 36.0859C269.43 35.6172 269.539 35.082 269.57 34.4805V32.9453C269.547 32.4531 269.48 32.0117 269.371 31.6211C269.27 31.2227 269.113 30.8828 268.902 30.6016C268.699 30.3203 268.434 30.1055 268.105 29.957C267.785 29.8008 267.395 29.7227 266.934 29.7227C266.496 29.7227 266.121 29.8203 265.809 30.0156C265.496 30.2109 265.242 30.4844 265.047 30.8359C264.859 31.1797 264.719 31.582 264.625 32.043C264.539 32.5039 264.496 33.0039 264.496 33.543ZM283.195 36.9648V27.3203H286.57V40H283.395L283.195 36.9648ZM283.57 34.3633L284.566 34.3398C284.566 35.1836 284.469 35.9688 284.273 36.6953C284.078 37.4141 283.785 38.0391 283.395 38.5703C283.004 39.0938 282.512 39.5039 281.918 39.8008C281.324 40.0898 280.625 40.2344 279.82 40.2344C279.203 40.2344 278.633 40.1484 278.109 39.9766C277.594 39.7969 277.148 39.5195 276.773 39.1445C276.406 38.7617 276.117 38.2734 275.906 37.6797C275.703 37.0781 275.602 36.3555 275.602 35.5117V27.3203H278.977V35.5352C278.977 35.9102 279.02 36.2266 279.105 36.4844C279.199 36.7422 279.328 36.9531 279.492 37.1172C279.656 37.2812 279.848 37.3984 280.066 37.4688C280.293 37.5391 280.543 37.5742 280.816 37.5742C281.512 37.5742 282.059 37.4336 282.457 37.1523C282.863 36.8711 283.148 36.4883 283.312 36.0039C283.484 35.5117 283.57 34.9648 283.57 34.3633ZM295.484 40.2344C294.5 40.2344 293.617 40.0781 292.836 39.7656C292.055 39.4453 291.391 39.0039 290.844 38.4414C290.305 37.8789 289.891 37.2266 289.602 36.4844C289.312 35.7344 289.168 34.9375 289.168 34.0938V33.625C289.168 32.6641 289.305 31.7852 289.578 30.9883C289.852 30.1914 290.242 29.5 290.75 28.9141C291.266 28.3281 291.891 27.8789 292.625 27.5664C293.359 27.2461 294.188 27.0859 295.109 27.0859C296.008 27.0859 296.805 27.2344 297.5 27.5312C298.195 27.8281 298.777 28.25 299.246 28.7969C299.723 29.3438 300.082 30 300.324 30.7656C300.566 31.5234 300.688 32.3672 300.688 33.2969V34.7031H290.609V32.4531H297.371V32.1953C297.371 31.7266 297.285 31.3086 297.113 30.9414C296.949 30.5664 296.699 30.2695 296.363 30.0508C296.027 29.832 295.598 29.7227 295.074 29.7227C294.629 29.7227 294.246 29.8203 293.926 30.0156C293.605 30.2109 293.344 30.4844 293.141 30.8359C292.945 31.1875 292.797 31.6016 292.695 32.0781C292.602 32.5469 292.555 33.0625 292.555 33.625V34.0938C292.555 34.6016 292.625 35.0703 292.766 35.5C292.914 35.9297 293.121 36.3008 293.387 36.6133C293.66 36.9258 293.988 37.168 294.371 37.3398C294.762 37.5117 295.203 37.5977 295.695 37.5977C296.305 37.5977 296.871 37.4805 297.395 37.2461C297.926 37.0039 298.383 36.6406 298.766 36.1562L300.406 37.9375C300.141 38.3203 299.777 38.6875 299.316 39.0391C298.863 39.3906 298.316 39.6797 297.676 39.9062C297.035 40.125 296.305 40.2344 295.484 40.2344ZM309.965 36.4961C309.965 36.2539 309.895 36.0352 309.754 35.8398C309.613 35.6445 309.352 35.4648 308.969 35.3008C308.594 35.1289 308.051 34.9727 307.34 34.832C306.699 34.6914 306.102 34.5156 305.547 34.3047C305 34.0859 304.523 33.8242 304.117 33.5195C303.719 33.2148 303.406 32.8555 303.18 32.4414C302.953 32.0195 302.84 31.5391 302.84 31C302.84 30.4688 302.953 29.9688 303.18 29.5C303.414 29.0312 303.746 28.6172 304.176 28.2578C304.613 27.8906 305.145 27.6055 305.77 27.4023C306.402 27.1914 307.113 27.0859 307.902 27.0859C309.004 27.0859 309.949 27.2617 310.738 27.6133C311.535 27.9648 312.145 28.4492 312.566 29.0664C312.996 29.6758 313.211 30.3711 313.211 31.1523H309.836C309.836 30.8242 309.766 30.5312 309.625 30.2734C309.492 30.0078 309.281 29.8008 308.992 29.6523C308.711 29.4961 308.344 29.418 307.891 29.418C307.516 29.418 307.191 29.4844 306.918 29.6172C306.645 29.7422 306.434 29.9141 306.285 30.1328C306.145 30.3438 306.074 30.5781 306.074 30.8359C306.074 31.0312 306.113 31.207 306.191 31.3633C306.277 31.5117 306.414 31.6484 306.602 31.7734C306.789 31.8984 307.031 32.0156 307.328 32.125C307.633 32.2266 308.008 32.3203 308.453 32.4062C309.367 32.5938 310.184 32.8398 310.902 33.1445C311.621 33.4414 312.191 33.8477 312.613 34.3633C313.035 34.8711 313.246 35.5391 313.246 36.3672C313.246 36.9297 313.121 37.4453 312.871 37.9141C312.621 38.3828 312.262 38.793 311.793 39.1445C311.324 39.4883 310.762 39.7578 310.105 39.9531C309.457 40.1406 308.727 40.2344 307.914 40.2344C306.734 40.2344 305.734 40.0234 304.914 39.6016C304.102 39.1797 303.484 38.6445 303.062 37.9961C302.648 37.3398 302.441 36.668 302.441 35.9805H305.641C305.656 36.4414 305.773 36.8125 305.992 37.0938C306.219 37.375 306.504 37.5781 306.848 37.7031C307.199 37.8281 307.578 37.8906 307.984 37.8906C308.422 37.8906 308.785 37.832 309.074 37.7148C309.363 37.5898 309.582 37.4258 309.73 37.2227C309.887 37.0117 309.965 36.7695 309.965 36.4961ZM322.148 27.3203V29.7109H314.766V27.3203H322.148ZM316.594 24.1914H319.969V36.1797C319.969 36.5469 320.016 36.8281 320.109 37.0234C320.211 37.2188 320.359 37.3555 320.555 37.4336C320.75 37.5039 320.996 37.5391 321.293 37.5391C321.504 37.5391 321.691 37.5312 321.855 37.5156C322.027 37.4922 322.172 37.4688 322.289 37.4453L322.301 39.9297C322.012 40.0234 321.699 40.0977 321.363 40.1523C321.027 40.207 320.656 40.2344 320.25 40.2344C319.508 40.2344 318.859 40.1133 318.305 39.8711C317.758 39.6211 317.336 39.2227 317.039 38.6758C316.742 38.1289 316.594 37.4102 316.594 36.5195V24.1914ZM337.891 37.1406V31.4922C337.891 31.0859 337.824 30.7383 337.691 30.4492C337.559 30.1523 337.352 29.9219 337.07 29.7578C336.797 29.5938 336.441 29.5117 336.004 29.5117C335.629 29.5117 335.305 29.5781 335.031 29.7109C334.758 29.8359 334.547 30.0195 334.398 30.2617C334.25 30.4961 334.176 30.7734 334.176 31.0938H330.801C330.801 30.5547 330.926 30.043 331.176 29.5586C331.426 29.0742 331.789 28.6484 332.266 28.2812C332.742 27.9062 333.309 27.6133 333.965 27.4023C334.629 27.1914 335.371 27.0859 336.191 27.0859C337.176 27.0859 338.051 27.25 338.816 27.5781C339.582 27.9062 340.184 28.3984 340.621 29.0547C341.066 29.7109 341.289 30.5312 341.289 31.5156V36.9414C341.289 37.6367 341.332 38.207 341.418 38.6523C341.504 39.0898 341.629 39.4727 341.793 39.8008V40H338.383C338.219 39.6562 338.094 39.2266 338.008 38.7109C337.93 38.1875 337.891 37.6641 337.891 37.1406ZM338.336 32.2773L338.359 34.1875H336.473C336.027 34.1875 335.641 34.2383 335.312 34.3398C334.984 34.4414 334.715 34.5859 334.504 34.7734C334.293 34.9531 334.137 35.1641 334.035 35.4062C333.941 35.6484 333.895 35.9141 333.895 36.2031C333.895 36.4922 333.961 36.7539 334.094 36.9883C334.227 37.2148 334.418 37.3945 334.668 37.5273C334.918 37.6523 335.211 37.7148 335.547 37.7148C336.055 37.7148 336.496 37.6133 336.871 37.4102C337.246 37.207 337.535 36.957 337.738 36.6602C337.949 36.3633 338.059 36.082 338.066 35.8164L338.957 37.2461C338.832 37.5664 338.66 37.8984 338.441 38.2422C338.23 38.5859 337.961 38.9102 337.633 39.2148C337.305 39.5117 336.91 39.7578 336.449 39.9531C335.988 40.1406 335.441 40.2344 334.809 40.2344C334.004 40.2344 333.273 40.0742 332.617 39.7539C331.969 39.4258 331.453 38.9766 331.07 38.4062C330.695 37.8281 330.508 37.1719 330.508 36.4375C330.508 35.7734 330.633 35.1836 330.883 34.668C331.133 34.1523 331.5 33.7188 331.984 33.3672C332.477 33.0078 333.09 32.7383 333.824 32.5586C334.559 32.3711 335.41 32.2773 336.379 32.2773H338.336ZM360.348 37.4688L364.965 41.125L362.75 43.0469L358.203 39.3906L360.348 37.4688ZM365.082 31.0703V31.8789C365.082 33.1758 364.906 34.3398 364.555 35.3711C364.211 36.4023 363.715 37.2812 363.066 38.0078C362.418 38.7266 361.652 39.2773 360.77 39.6602C359.887 40.043 358.906 40.2344 357.828 40.2344C356.758 40.2344 355.777 40.043 354.887 39.6602C353.996 39.2773 353.227 38.7266 352.578 38.0078C351.93 37.2812 351.426 36.4023 351.066 35.3711C350.715 34.3398 350.539 33.1758 350.539 31.8789V31.0703C350.539 29.7656 350.715 28.6016 351.066 27.5781C351.426 26.5469 351.926 25.668 352.566 24.9414C353.207 24.2148 353.973 23.6602 354.863 23.2773C355.754 22.8945 356.734 22.7031 357.805 22.7031C358.883 22.7031 359.863 22.8945 360.746 23.2773C361.637 23.6602 362.406 24.2148 363.055 24.9414C363.703 25.668 364.203 26.5469 364.555 27.5781C364.906 28.6016 365.082 29.7656 365.082 31.0703ZM361.531 31.8789V31.0469C361.531 30.1406 361.445 29.3438 361.273 28.6562C361.109 27.9688 360.867 27.3906 360.547 26.9219C360.234 26.4531 359.848 26.1016 359.387 25.8672C358.926 25.625 358.398 25.5039 357.805 25.5039C357.211 25.5039 356.684 25.625 356.223 25.8672C355.762 26.1016 355.375 26.4531 355.062 26.9219C354.75 27.3906 354.512 27.9688 354.348 28.6562C354.184 29.3438 354.102 30.1406 354.102 31.0469V31.8789C354.102 32.7773 354.184 33.5742 354.348 34.2695C354.512 34.957 354.75 35.5391 355.062 36.0156C355.383 36.4844 355.773 36.8398 356.234 37.082C356.703 37.3242 357.234 37.4453 357.828 37.4453C358.422 37.4453 358.945 37.3242 359.398 37.082C359.859 36.8398 360.246 36.4844 360.559 36.0156C360.879 35.5391 361.121 34.957 361.285 34.2695C361.449 33.5742 361.531 32.7773 361.531 31.8789ZM375.414 36.9648V27.3203H378.789V40H375.613L375.414 36.9648ZM375.789 34.3633L376.785 34.3398C376.785 35.1836 376.688 35.9688 376.492 36.6953C376.297 37.4141 376.004 38.0391 375.613 38.5703C375.223 39.0938 374.73 39.5039 374.137 39.8008C373.543 40.0898 372.844 40.2344 372.039 40.2344C371.422 40.2344 370.852 40.1484 370.328 39.9766C369.812 39.7969 369.367 39.5195 368.992 39.1445C368.625 38.7617 368.336 38.2734 368.125 37.6797C367.922 37.0781 367.82 36.3555 367.82 35.5117V27.3203H371.195V35.5352C371.195 35.9102 371.238 36.2266 371.324 36.4844C371.418 36.7422 371.547 36.9531 371.711 37.1172C371.875 37.2812 372.066 37.3984 372.285 37.4688C372.512 37.5391 372.762 37.5742 373.035 37.5742C373.73 37.5742 374.277 37.4336 374.676 37.1523C375.082 36.8711 375.367 36.4883 375.531 36.0039C375.703 35.5117 375.789 34.9648 375.789 34.3633ZM381.328 33.7891V33.543C381.328 32.6133 381.461 31.7578 381.727 30.9766C381.992 30.1875 382.379 29.5039 382.887 28.9258C383.395 28.3477 384.02 27.8984 384.762 27.5781C385.504 27.25 386.355 27.0859 387.316 27.0859C388.277 27.0859 389.133 27.25 389.883 27.5781C390.633 27.8984 391.262 28.3477 391.77 28.9258C392.285 29.5039 392.676 30.1875 392.941 30.9766C393.207 31.7578 393.34 32.6133 393.34 33.543V33.7891C393.34 34.7109 393.207 35.5664 392.941 36.3555C392.676 37.1367 392.285 37.8203 391.77 38.4062C391.262 38.9844 390.637 39.4336 389.895 39.7539C389.152 40.0742 388.301 40.2344 387.34 40.2344C386.379 40.2344 385.523 40.0742 384.773 39.7539C384.031 39.4336 383.402 38.9844 382.887 38.4062C382.379 37.8203 381.992 37.1367 381.727 36.3555C381.461 35.5664 381.328 34.7109 381.328 33.7891ZM384.703 33.543V33.7891C384.703 34.3203 384.75 34.8164 384.844 35.2773C384.938 35.7383 385.086 36.1445 385.289 36.4961C385.5 36.8398 385.773 37.1094 386.109 37.3047C386.445 37.5 386.855 37.5977 387.34 37.5977C387.809 37.5977 388.211 37.5 388.547 37.3047C388.883 37.1094 389.152 36.8398 389.355 36.4961C389.559 36.1445 389.707 35.7383 389.801 35.2773C389.902 34.8164 389.953 34.3203 389.953 33.7891V33.543C389.953 33.0273 389.902 32.543 389.801 32.0898C389.707 31.6289 389.555 31.2227 389.344 30.8711C389.141 30.5117 388.871 30.2305 388.535 30.0273C388.199 29.8242 387.793 29.7227 387.316 29.7227C386.84 29.7227 386.434 29.8242 386.098 30.0273C385.77 30.2305 385.5 30.5117 385.289 30.8711C385.086 31.2227 384.938 31.6289 384.844 32.0898C384.75 32.543 384.703 33.0273 384.703 33.543ZM402.125 27.3203V29.7109H394.742V27.3203H402.125ZM396.57 24.1914H399.945V36.1797C399.945 36.5469 399.992 36.8281 400.086 37.0234C400.188 37.2188 400.336 37.3555 400.531 37.4336C400.727 37.5039 400.973 37.5391 401.27 37.5391C401.48 37.5391 401.668 37.5312 401.832 37.5156C402.004 37.4922 402.148 37.4688 402.266 37.4453L402.277 39.9297C401.988 40.0234 401.676 40.0977 401.34 40.1523C401.004 40.207 400.633 40.2344 400.227 40.2344C399.484 40.2344 398.836 40.1133 398.281 39.8711C397.734 39.6211 397.312 39.2227 397.016 38.6758C396.719 38.1289 396.57 37.4102 396.57 36.5195V24.1914ZM410.383 40.2344C409.398 40.2344 408.516 40.0781 407.734 39.7656C406.953 39.4453 406.289 39.0039 405.742 38.4414C405.203 37.8789 404.789 37.2266 404.5 36.4844C404.211 35.7344 404.066 34.9375 404.066 34.0938V33.625C404.066 32.6641 404.203 31.7852 404.477 30.9883C404.75 30.1914 405.141 29.5 405.648 28.9141C406.164 28.3281 406.789 27.8789 407.523 27.5664C408.258 27.2461 409.086 27.0859 410.008 27.0859C410.906 27.0859 411.703 27.2344 412.398 27.5312C413.094 27.8281 413.676 28.25 414.145 28.7969C414.621 29.3438 414.98 30 415.223 30.7656C415.465 31.5234 415.586 32.3672 415.586 33.2969V34.7031H405.508V32.4531H412.27V32.1953C412.27 31.7266 412.184 31.3086 412.012 30.9414C411.848 30.5664 411.598 30.2695 411.262 30.0508C410.926 29.832 410.496 29.7227 409.973 29.7227C409.527 29.7227 409.145 29.8203 408.824 30.0156C408.504 30.2109 408.242 30.4844 408.039 30.8359C407.844 31.1875 407.695 31.6016 407.594 32.0781C407.5 32.5469 407.453 33.0625 407.453 33.625V34.0938C407.453 34.6016 407.523 35.0703 407.664 35.5C407.812 35.9297 408.02 36.3008 408.285 36.6133C408.559 36.9258 408.887 37.168 409.27 37.3398C409.66 37.5117 410.102 37.5977 410.594 37.5977C411.203 37.5977 411.77 37.4805 412.293 37.2461C412.824 37.0039 413.281 36.6406 413.664 36.1562L415.305 37.9375C415.039 38.3203 414.676 38.6875 414.215 39.0391C413.762 39.3906 413.215 39.6797 412.574 39.9062C411.934 40.125 411.203 40.2344 410.383 40.2344Z" fill="#581C87"/>
<path d="M456.586 30.657L452.636 26.707C452.454 26.5184 452.353 26.2658 452.355 26.0036C452.358 25.7414 452.463 25.4906 452.648 25.3052C452.834 25.1198 453.084 25.0146 453.347 25.0123C453.609 25.01 453.861 25.1108 454.05 25.293L459.707 30.95C459.8 31.0426 459.874 31.1528 459.925 31.2741C459.975 31.3955 460.001 31.5256 460.001 31.657C460.001 31.7884 459.975 31.9185 459.925 32.0399C459.874 32.1612 459.8 32.2713 459.707 32.364L454.05 38.021C453.958 38.1165 453.847 38.1927 453.725 38.2451C453.603 38.2975 453.472 38.3251 453.339 38.3263C453.207 38.3274 453.075 38.3021 452.952 38.2518C452.829 38.2016 452.718 38.1273 452.624 38.0334C452.53 37.9395 452.455 37.8279 452.405 37.705C452.355 37.5821 452.33 37.4504 452.331 37.3176C452.332 37.1848 452.359 37.0536 452.412 36.9316C452.464 36.8096 452.54 36.6993 452.636 36.607L456.586 32.657H447C446.735 32.657 446.48 32.5516 446.293 32.3641C446.105 32.1766 446 31.9222 446 31.657C446 31.3918 446.105 31.1374 446.293 30.9499C446.48 30.7624 446.735 30.657 447 30.657H456.586Z" fill="#581C87"/>
</svg>
