<svg width="511" height="48" viewBox="0 0 511 48" fill="none" xmlns="http://www.w3.org/2000/svg">
<path d="M10.8906 30.3281C10.8906 30.0052 10.7969 29.7135 10.6094 29.4531C10.4219 29.1927 10.0729 28.9531 9.5625 28.7344C9.0625 28.5052 8.33854 28.2969 7.39062 28.1094C6.53646 27.9219 5.73958 27.6875 5 27.4062C4.27083 27.1146 3.63542 26.7656 3.09375 26.3594C2.5625 25.9531 2.14583 25.474 1.84375 24.9219C1.54167 24.3594 1.39062 23.7188 1.39062 23C1.39062 22.2917 1.54167 21.625 1.84375 21C2.15625 20.375 2.59896 19.8229 3.17188 19.3438C3.75521 18.8542 4.46354 18.474 5.29688 18.2031C6.14062 17.9219 7.08854 17.7812 8.14062 17.7812C9.60938 17.7812 10.8698 18.0156 11.9219 18.4844C12.9844 18.9531 13.7969 19.599 14.3594 20.4219C14.9323 21.2344 15.2188 22.1615 15.2188 23.2031H10.7188C10.7188 22.7656 10.625 22.375 10.4375 22.0312C10.2604 21.6771 9.97917 21.401 9.59375 21.2031C9.21875 20.9948 8.72917 20.8906 8.125 20.8906C7.625 20.8906 7.19271 20.9792 6.82812 21.1562C6.46354 21.3229 6.18229 21.5521 5.98438 21.8438C5.79688 22.125 5.70312 22.4375 5.70312 22.7812C5.70312 23.0417 5.75521 23.276 5.85938 23.4844C5.97396 23.6823 6.15625 23.8646 6.40625 24.0312C6.65625 24.1979 6.97917 24.3542 7.375 24.5C7.78125 24.6354 8.28125 24.7604 8.875 24.875C10.0938 25.125 11.1823 25.4531 12.1406 25.8594C13.099 26.2552 13.8594 26.7969 14.4219 27.4844C14.9844 28.1615 15.2656 29.0521 15.2656 30.1562C15.2656 30.9062 15.099 31.5938 14.7656 32.2188C14.4323 32.8438 13.9531 33.3906 13.3281 33.8594C12.7031 34.3177 11.9531 34.6771 11.0781 34.9375C10.2135 35.1875 9.23958 35.3125 8.15625 35.3125C6.58333 35.3125 5.25 35.0312 4.15625 34.4688C3.07292 33.9062 2.25 33.1927 1.6875 32.3281C1.13542 31.4531 0.859375 30.5573 0.859375 29.6406H5.125C5.14583 30.2552 5.30208 30.75 5.59375 31.125C5.89583 31.5 6.27604 31.7708 6.73438 31.9375C7.20312 32.1042 7.70833 32.1875 8.25 32.1875C8.83333 32.1875 9.31771 32.1094 9.70312 31.9531C10.0885 31.7865 10.3802 31.5677 10.5781 31.2969C10.7865 31.0156 10.8906 30.6927 10.8906 30.3281ZM17.4688 26.7188V26.3906C17.4688 25.151 17.6458 24.0104 18 22.9688C18.3542 21.9167 18.8698 21.0052 19.5469 20.2344C20.224 19.4635 21.0573 18.8646 22.0469 18.4375C23.0365 18 24.1719 17.7812 25.4531 17.7812C26.7344 17.7812 27.875 18 28.875 18.4375C29.875 18.8646 30.7135 19.4635 31.3906 20.2344C32.0781 21.0052 32.599 21.9167 32.9531 22.9688C33.3073 24.0104 33.4844 25.151 33.4844 26.3906V26.7188C33.4844 27.9479 33.3073 29.0885 32.9531 30.1406C32.599 31.1823 32.0781 32.0938 31.3906 32.875C30.7135 33.6458 29.8802 34.2448 28.8906 34.6719C27.901 35.099 26.7656 35.3125 25.4844 35.3125C24.2031 35.3125 23.0625 35.099 22.0625 34.6719C21.0729 34.2448 20.2344 33.6458 19.5469 32.875C18.8698 32.0938 18.3542 31.1823 18 30.1406C17.6458 29.0885 17.4688 27.9479 17.4688 26.7188ZM21.9688 26.3906V26.7188C21.9688 27.4271 22.0312 28.0885 22.1562 28.7031C22.2812 29.3177 22.4792 29.8594 22.75 30.3281C23.0312 30.7865 23.3958 31.1458 23.8438 31.4062C24.2917 31.6667 24.8385 31.7969 25.4844 31.7969C26.1094 31.7969 26.6458 31.6667 27.0938 31.4062C27.5417 31.1458 27.901 30.7865 28.1719 30.3281C28.4427 29.8594 28.6406 29.3177 28.7656 28.7031C28.901 28.0885 28.9688 27.4271 28.9688 26.7188V26.3906C28.9688 25.7031 28.901 25.0573 28.7656 24.4531C28.6406 23.8385 28.4375 23.2969 28.1562 22.8281C27.8854 22.349 27.526 21.974 27.0781 21.7031C26.6302 21.4323 26.0885 21.2969 25.4531 21.2969C24.8177 21.2969 24.276 21.4323 23.8281 21.7031C23.3906 21.974 23.0312 22.349 22.75 22.8281C22.4792 23.2969 22.2812 23.8385 22.1562 24.4531C22.0312 25.0573 21.9688 25.7031 21.9688 26.3906ZM41 11V35H36.4844V11H41ZM49.4688 11V35H44.9531V11H49.4688ZM60.9688 35.3125C59.6562 35.3125 58.4792 35.1042 57.4375 34.6875C56.3958 34.2604 55.5104 33.6719 54.7812 32.9219C54.0625 32.1719 53.5104 31.3021 53.125 30.3125C52.7396 29.3125 52.5469 28.25 52.5469 27.125V26.5C52.5469 25.2188 52.7292 24.0469 53.0938 22.9844C53.4583 21.9219 53.9792 21 54.6562 20.2188C55.3438 19.4375 56.1771 18.8385 57.1562 18.4219C58.1354 17.9948 59.2396 17.7812 60.4688 17.7812C61.6667 17.7812 62.7292 17.9792 63.6562 18.375C64.5833 18.7708 65.3594 19.3333 65.9844 20.0625C66.6198 20.7917 67.099 21.6667 67.4219 22.6875C67.7448 23.6979 67.9062 24.8229 67.9062 26.0625V27.9375H54.4688V24.9375H63.4844V24.5938C63.4844 23.9688 63.3698 23.4115 63.1406 22.9219C62.9219 22.4219 62.5885 22.026 62.1406 21.7344C61.6927 21.4427 61.1198 21.2969 60.4219 21.2969C59.8281 21.2969 59.3177 21.4271 58.8906 21.6875C58.4635 21.9479 58.1146 22.3125 57.8438 22.7812C57.5833 23.25 57.3854 23.8021 57.25 24.4375C57.125 25.0625 57.0625 25.75 57.0625 26.5V27.125C57.0625 27.8021 57.1562 28.4271 57.3438 29C57.5417 29.5729 57.8177 30.0677 58.1719 30.4844C58.5365 30.901 58.974 31.224 59.4844 31.4531C60.0052 31.6823 60.5938 31.7969 61.25 31.7969C62.0625 31.7969 62.8177 31.6406 63.5156 31.3281C64.224 31.0052 64.8333 30.5208 65.3438 29.875L67.5312 32.25C67.1771 32.7604 66.6927 33.25 66.0781 33.7188C65.474 34.1875 64.7448 34.5729 63.8906 34.875C63.0365 35.1667 62.0625 35.3125 60.9688 35.3125ZM74.9688 21.7812V35H70.4688V18.0938H74.7031L74.9688 21.7812ZM80.0625 17.9844L79.9844 22.1562C79.7656 22.125 79.5 22.099 79.1875 22.0781C78.8854 22.0469 78.6094 22.0312 78.3594 22.0312C77.724 22.0312 77.1719 22.1146 76.7031 22.2812C76.2448 22.4375 75.8594 22.6719 75.5469 22.9844C75.2448 23.2969 75.0156 23.6771 74.8594 24.125C74.7135 24.5729 74.6302 25.0833 74.6094 25.6562L73.7031 25.375C73.7031 24.2812 73.8125 23.276 74.0312 22.3594C74.25 21.4323 74.5677 20.625 74.9844 19.9375C75.4115 19.25 75.9323 18.7188 76.5469 18.3438C77.1615 17.9688 77.8646 17.7812 78.6562 17.7812C78.9062 17.7812 79.1615 17.8021 79.4219 17.8438C79.6823 17.875 79.8958 17.9219 80.0625 17.9844Z" fill="#0F172A"/>
</svg>
